<svg width="214" height="214" viewBox="0 0 214 214" fill="none" xmlns="http://www.w3.org/2000/svg">
<circle cx="107" cy="107" r="107" fill="white"/>
<path d="M141.943 112.59C141.889 112.558 141.833 112.528 141.778 112.499C127.418 105.218 110.059 105.223 109.419 105.234C92.0378 104.754 77.564 108.056 67.5597 114.76C58.247 120.996 57.978 126.689 58.3122 128.891C58.285 131.137 58.1736 141.995 58.5092 145.88C58.7605 148.816 60.0919 150.396 61.1651 151.207C62.4652 152.187 63.8713 152.428 64.9364 152.428C65.7502 152.428 66.3642 152.288 66.5843 152.229C69.5187 151.455 84.2832 147.534 86.7626 146.463C91.0216 144.618 91.1601 140.311 91.2349 137.998L91.2498 137.57C91.3028 136.166 91.421 134.013 91.5052 132.54C92.4725 132.062 94.7711 131.236 99.9091 130.536C106.113 129.694 115.801 130.928 119.264 131.622C120.288 131.828 121.167 132.277 121.805 132.686C121.764 133.935 121.735 135.661 121.781 137.521C121.919 142.83 125.282 145.064 125.665 145.302C125.894 145.443 126.137 145.556 126.391 145.638L140.221 150.098C147.171 152.735 150.317 152.983 152.225 151.051C152.76 150.509 153.125 149.818 153.295 149.081C154.632 145.759 154.807 142.125 154.803 139.292C154.803 138.817 154.833 138.091 154.868 137.21C155.074 132.02 155.181 126.686 154.066 123.474C152.555 119.126 145.084 114.414 141.943 112.59ZM148.079 136.908C148.038 137.919 148.007 138.751 148.007 139.299C148.008 140.882 147.944 143.015 147.471 144.91C146.496 144.686 144.908 144.227 142.428 143.284C142.375 143.264 142.324 143.246 142.269 143.228L129.029 138.96C128.839 138.7 128.589 138.199 128.567 137.332C128.487 134.101 128.664 131.236 128.666 131.207C128.732 130.16 128.365 129.133 127.66 128.396C127.368 128.091 124.676 125.38 120.523 124.543C117.964 124.032 106.813 122.334 99.041 123.39C91.3503 124.437 87.2965 125.977 85.4869 128.543C85.0916 129.104 84.8593 129.775 84.8158 130.473C84.8158 130.473 84.5482 134.918 84.4571 137.287L84.4408 137.757C84.4177 138.461 84.3838 139.524 84.1936 139.791C82.7318 140.422 72.3608 143.274 65.2625 145.152C64.9935 141.858 65.0573 132.114 65.1049 128.607C65.1089 128.329 65.0818 128.05 65.0261 127.778C65.0288 126.95 66.1143 124.252 71.1816 120.859C79.9224 115.004 93.4384 112.013 109.345 112.445C109.537 112.471 125.808 112.434 138.762 118.965C142.888 121.375 147.133 124.715 147.686 125.97C148.428 128.095 148.183 134.272 148.079 136.908Z" fill="#2292AD"/>
<path d="M98.7048 69.6178L92.7096 62H76.2646H69.7626C68.3362 62 67.1787 63.2285 67.1787 64.7426V71.6452V89.1015L74.3545 95.4634C75.1125 96.1353 76.2646 95.5629 76.2646 94.5146V78.1859L99.5715 102.931C102.022 102.829 104.544 102.8 107.158 102.872C107.158 102.872 108.296 102.868 110.212 102.976L132.543 79.2674C133.106 78.6704 133.106 77.7029 132.543 77.1059L128.154 72.4469C127.591 71.85 126.68 71.85 126.117 72.4469L104.913 94.9515L82.9553 71.6452H97.8122C98.7999 71.6452 99.3392 70.4224 98.7048 69.6178Z" fill="#2292AD"/>
</svg>
