<svg width="214" height="214" viewBox="0 0 214 214" fill="none" xmlns="http://www.w3.org/2000/svg">
<circle cx="107" cy="107" r="107" fill="white"/>
<path d="M135.551 141.61C134.189 137.277 130.714 134.078 126.478 133.26L115.227 131.087V130.161C117.185 128.955 118.889 127.341 120.246 125.431H123.645C126.43 125.431 128.696 123.026 128.696 120.07V98.6261C128.696 85.817 118.877 75.3953 106.809 75.3953C94.7407 75.3953 84.9219 85.817 84.9219 98.6261V111.135C84.9219 114.58 87.2301 117.463 90.2909 118.135C91.2354 123.271 94.2592 127.616 98.3908 130.161V131.087L87.1375 133.26C82.9032 134.078 79.4266 137.277 78.0662 141.61L77.3928 143.757L71.6584 137.67C71.0018 136.973 71.0018 135.838 71.6584 135.141L78.3087 128.085L65.8264 114.836L58.3108 122.813C56.085 125.175 54.8594 128.317 54.8594 131.659C54.8594 135 56.085 138.14 58.3108 140.502L81.0647 164.654C83.2905 167.016 86.2503 168.319 89.3986 168.319C92.5469 168.319 95.505 167.016 97.6786 164.707L105.879 156.732L103.322 154.023H139.449L135.551 141.61ZM106.809 137.2L101.758 131.839V131.755C103.354 132.288 105.049 132.579 106.809 132.579C108.568 132.579 110.264 132.288 111.86 131.755V131.839L106.809 137.2ZM123.645 121.857H122.229C122.717 120.676 123.088 119.43 123.327 118.135C124.047 117.976 124.711 117.672 125.328 117.289V120.07C125.328 121.056 124.573 121.857 123.645 121.857ZM123.645 108.058C124.647 108.678 125.328 109.818 125.328 111.135C125.328 112.452 124.647 113.592 123.645 114.212V108.058ZM88.2891 111.135C88.2891 109.818 88.971 108.678 89.9727 108.058V114.212C88.971 113.592 88.2891 112.452 88.2891 111.135ZM89.9727 102.2V104.241C89.3733 104.407 88.811 104.657 88.2891 104.981V98.6261C88.2891 87.788 96.5977 78.9692 106.809 78.9692C117.02 78.9692 125.328 87.788 125.328 98.6261V104.981C124.807 104.657 124.244 104.405 123.645 104.241V102.2H121.961C116.983 102.2 112.302 100.141 108.78 96.4049L106.809 94.3123L104.837 96.4049C101.315 100.141 96.6348 102.2 91.6563 102.2H89.9727ZM93.3399 114.709V105.706C98.3958 105.302 103.11 103.088 106.809 99.3552C110.508 103.088 115.222 105.304 120.278 105.706V114.709C120.278 117.314 119.608 119.752 118.456 121.857H106.809V125.431H115.688C113.314 127.649 110.211 129.005 106.809 129.005C99.3824 129.005 93.3399 122.591 93.3399 114.709ZM73.5457 128.085L71.7173 130.025L63.9963 121.83L65.8247 119.89L73.5457 128.085ZM89.3952 164.745C87.1476 164.745 85.033 163.814 83.442 162.127L60.688 137.977C59.0987 136.291 58.2232 134.046 58.2232 131.66C58.2232 129.273 59.0987 127.029 60.688 125.342L61.614 124.359L69.335 132.554L69.2744 132.618C67.3063 134.709 67.3063 138.11 69.2744 140.2L81.3476 153.015C82.3022 154.026 83.5699 154.586 84.9202 154.586C86.2705 154.586 87.5382 154.028 88.4305 153.077L88.5568 152.958L96.3132 161.19L95.3468 162.13C93.7575 163.814 91.6429 164.745 89.3952 164.745ZM98.7982 158.771L91.0586 150.556L93.2827 148.422L101.009 156.623L98.7982 158.771ZM99.9548 150.449L93.3972 143.489L86.1105 150.485C85.4758 151.162 84.3663 151.162 83.7299 150.485L80.0529 146.582L81.2584 142.74C82.2298 139.645 84.7131 137.359 87.7386 136.773L99.507 134.504L106.809 142.254L114.109 134.505L125.876 136.775C128.901 137.361 131.384 139.645 132.356 142.742L134.779 150.449H99.9548Z" fill="#2292AD"/>
<path d="M153.949 57.5254H130.379C127.594 57.5254 125.328 59.9307 125.328 62.8864V77.1823C125.328 80.1379 127.594 82.5432 130.379 82.5432H134.876L133.135 93.3206L149.382 82.5432H153.949C156.734 82.5432 159 80.1379 159 77.1823V62.8864C159 59.9307 156.734 57.5254 153.949 57.5254ZM155.633 77.1823C155.633 78.1669 154.877 78.9693 153.949 78.9693H148.415L137.723 86.0618L138.869 78.9693H130.379C129.451 78.9693 128.695 78.1669 128.695 77.1823V62.8864C128.695 61.9017 129.451 61.0994 130.379 61.0994H153.949C154.877 61.0994 155.633 61.9017 155.633 62.8864V77.1823Z" fill="#2292AD"/>
<path d="M152.266 64.6733H132.062V68.2473H152.266V64.6733Z" fill="#2292AD"/>
<path d="M145.531 71.8212H132.062V75.3953H145.531V71.8212Z" fill="#2292AD"/>
<path d="M152.268 71.8212H148.9V75.3953H152.268V71.8212Z" fill="#2292AD"/>
<path d="M70.6362 101.945L68.9038 98.8799L64.3412 101.786C69.1125 81.1761 86.5732 66.4602 106.809 66.4602C111.231 66.4602 115.595 67.1571 119.779 68.5331L120.776 65.12C116.269 63.6368 111.57 62.8862 106.809 62.8862C84.8105 62.8862 65.8615 79.0371 60.9352 101.566L57.7448 95.9206L54.8574 97.7594L60.7753 108.226L70.6362 101.945Z" fill="#2292AD"/>
<path d="M142.404 101.28L145.292 103.119L148.238 97.9059C149.789 102.722 150.582 107.759 150.582 112.922C150.582 123.549 147.113 133.939 140.818 142.175L143.433 144.427C150.215 135.556 153.949 124.366 153.949 112.922C153.949 107.456 153.119 102.118 151.501 97.007L156.449 100.158L158.181 97.0928L148.321 90.8115L142.404 101.28Z" fill="#2292AD"/>
</svg>
