<svg width="214" height="214" viewBox="0 0 214 214" fill="none" xmlns="http://www.w3.org/2000/svg">
<circle cx="107" cy="107" r="107" fill="white"/>
<path d="M127.871 111.504C139.649 113.671 148.6 124.671 148.6 137.839C148.6 152.673 137.294 164.674 123.317 164.674C115.152 164.674 107.771 160.507 103.217 154.006C90.8114 154.84 77.3065 152.34 71.0251 145.839C67.7274 142.339 66 138.172 66 133.172C66 122.838 69.2977 111.337 74.6369 102.67C77.3065 98.3363 80.4471 94.8361 83.7449 92.1693C84.216 91.5025 84.53 90.8358 84.6871 90.0025C84.8441 88.8357 84.53 87.669 83.9019 86.5022C80.6042 82.6687 78.5627 77.5017 78.5627 71.8347C78.5627 59.8339 87.6707 50 98.9772 50C110.284 50 119.392 59.8339 119.392 71.8347C119.392 77.5017 117.35 82.6687 114.052 86.5022C113.424 87.669 113.11 88.8357 113.267 90.0025C113.424 90.8358 113.581 91.5025 114.209 92.1693C117.664 94.8361 120.648 98.3363 123.317 102.67C125.202 105.337 126.615 108.337 127.871 111.504ZM142.162 137.839C142.162 129.505 137.294 122.338 130.384 119.504C128.5 118.671 126.458 118.171 124.26 118.171C124.103 118.171 124.103 118.171 123.946 118.171C123.789 118.171 123.632 118.171 123.475 118.171C113.11 118.171 104.787 127.005 104.787 138.005C104.787 141.172 105.416 144.006 106.672 146.673C107.771 149.173 109.498 151.34 111.383 153.173C114.681 156.173 118.921 157.84 123.475 157.84C123.632 157.84 123.632 157.84 123.789 157.84H123.946C133.996 157.34 142.162 148.506 142.162 137.839ZM120.805 111.17C115.309 99.8364 106.358 93.5027 99.1342 93.5027C88.1418 93.5027 72.5954 108.504 72.5954 133.172C72.5954 136.339 73.5376 138.839 75.5791 140.839C79.662 145.006 89.7122 147.006 99.6053 147.006C98.6631 144.172 98.192 141.172 98.192 138.005C98.192 124.005 108.085 112.504 120.805 111.17ZM110.441 80.3352C112.168 77.835 113.11 74.8349 113.11 71.668C113.11 63.5008 106.829 56.8338 99.1342 56.8338C91.4395 56.8338 85.1582 63.5008 85.1582 71.668C85.1582 74.8349 86.1004 77.835 87.8278 80.3352C88.2989 80.8352 88.77 81.5019 89.084 82.002C91.5966 84.8355 95.2084 86.5022 99.1342 86.5022C103.06 86.5022 106.672 84.8355 109.184 82.002C109.498 81.5019 109.97 80.8352 110.441 80.3352Z" fill="#2292AD"/>
<path d="M114.525 133.005C116.566 129.338 121.906 129.338 124.104 132.672C126.303 129.171 131.642 129.338 133.683 133.005C135.882 137.005 132.741 140.672 130.228 143.339C128.815 144.839 124.889 148.34 124.104 149.006C123.319 148.34 119.393 144.839 117.98 143.339C115.467 140.839 112.169 137.005 114.525 133.005Z" fill="#2292AD"/>
</svg>
