<svg width="633" height="832" viewBox="0 0 633 832" fill="none" xmlns="http://www.w3.org/2000/svg">
<path d="M514.262 830.061C619.602 526.669 355.915 202.28 273.128 112.253" stroke="#E5C9B3" stroke-opacity="0.4" stroke-width="4"/>
<path d="M511.094 509.682C293.384 479.664 126.632 342.196 70.4703 277.213C189.239 298.323 443.64 374.369 511.094 509.682Z" stroke="#E5C9B3" stroke-opacity="0.4" stroke-width="3"/>
<path d="M157.185 181.059C193.815 218.875 265.715 268.981 403.104 288.655C368.465 211.314 200.718 130.111 121.174 99.1779C120.968 113.866 127.881 150.805 157.185 181.059Z" stroke="#E5C9B3" stroke-opacity="0.4" stroke-width="3"/>
<path d="M305.638 72.7549C317.381 95.8612 304.252 125.394 296.219 137.273C270.633 117.395 263.776 52.5253 263.546 22.5748C272.684 29.6739 293.896 49.6485 305.638 72.7549Z" stroke="#E5C9B3" stroke-opacity="0.4" stroke-width="3"/>
<path d="M137.636 66.0686C168.553 70.0132 238.811 84.8996 272.516 112.888C275.929 117.72 274.536 126.93 241.661 125.117C208.786 123.305 158.613 84.9963 137.636 66.0686Z" stroke="#E5C9B3" stroke-opacity="0.4" stroke-width="3"/>
<path d="M573.155 356.435C565.217 438.682 520.211 468.524 498.7 473.164C480.96 407.507 533.114 272.289 561.409 212.886C568.632 226.467 581.092 274.189 573.155 356.435Z" stroke="#E5C9B3" stroke-opacity="0.4" stroke-width="3"/>
<path d="M438.082 107.645C462.61 143.729 515.446 209.924 439.129 339.415C408.084 289.224 388.754 130.258 382.969 57.0484C393.164 61.8861 418.459 78.7782 438.082 107.645Z" stroke="#E5C9B3" stroke-opacity="0.4" stroke-width="3"/>
</svg>
