<svg width="96" height="101" viewBox="0 0 96 101" fill="none" xmlns="http://www.w3.org/2000/svg">
<path d="M68.1486 99.8034C61.3186 98.8134 54.8186 96.1934 49.2086 92.1734C42.7086 87.6434 36.7286 82.3934 31.3986 76.5334C24.8486 69.5334 18.1786 62.6234 12.3986 54.9034C7.8486 48.7034 3.7786 42.2034 1.5586 34.7334C0.0185981 29.9834 -0.391402 24.9334 0.378598 20.0034C1.3786 14.1134 4.4986 9.32344 8.7686 5.31344C10.5286 3.74344 12.4386 2.34344 14.4786 1.14344C16.9586 -0.426557 20.1286 -0.376557 22.5586 1.27344C28.2486 4.65344 32.5986 9.88344 34.9086 16.0834C35.7186 17.8634 35.4886 19.9434 34.3186 21.5034C32.8886 23.4334 31.3986 25.3134 29.9586 27.2434C28.6886 28.9534 27.3686 30.6334 26.2386 32.4334C25.0486 34.1134 25.0686 36.3734 26.2886 38.0334C29.1386 42.0334 31.8986 46.1534 34.9986 49.9634C40.6086 56.9034 46.8186 63.3434 53.5586 69.1934C55.0586 70.4834 56.6686 71.6235 58.2686 72.7934C59.6586 73.8735 61.5586 74.0434 63.1186 73.2334C64.8286 72.3834 66.4986 71.4534 68.1186 70.4334C70.3586 69.0034 72.5586 67.5334 74.7586 66.1234C76.6086 64.9434 78.9686 64.8934 80.8586 66.0034C86.5286 68.8234 91.1586 73.3735 94.0586 79.0034C95.7286 81.8834 95.4386 85.4934 93.3386 88.0734C87.8086 95.3335 80.7386 99.8134 71.3386 100.013C70.2686 99.9934 69.2086 99.9234 68.1486 99.8034Z" fill="white"/>
</svg>
