<svg width="29" height="22" viewBox="0 0 29 22" fill="none" xmlns="http://www.w3.org/2000/svg">
<path d="M28.0015 2.60446C26.9745 3.04568 25.8652 3.34596 24.7051 3.48078C25.8905 2.79443 26.8034 1.70362 27.2344 0.410585C26.1251 1.04791 24.8953 1.50752 23.5894 1.75877C22.5308 0.674095 21.0411 0 19.3866 0C16.217 0 13.6433 2.48802 13.6433 5.55209C13.6433 5.98719 13.694 6.41003 13.7955 6.82061C9.01574 6.58774 4.78119 4.37549 1.94759 1.01727C1.45314 1.83844 1.17422 2.7883 1.17422 3.80557C1.17422 5.72981 2.18848 7.43343 3.72889 8.42618C2.7907 8.39554 1.90322 8.15042 1.12984 7.73371C1.12984 7.75822 1.12984 7.78273 1.12984 7.80111C1.12984 10.4914 3.10765 12.7343 5.7384 13.2429C5.25662 13.3716 4.74949 13.439 4.22334 13.439C3.85567 13.439 3.49434 13.4022 3.13935 13.3409C3.86835 15.5471 5.99196 17.1526 8.50861 17.1955C6.54347 18.6847 4.06487 19.5733 1.37707 19.5733C0.91431 19.5733 0.457892 19.5487 0.0078125 19.4936C2.54981 21.0685 5.56724 21.9877 8.81288 21.9877C19.3802 21.9877 25.1552 13.5248 25.1552 6.18942C25.1552 5.95042 25.1489 5.71142 25.1362 5.47242C26.2582 4.69415 27.2281 3.71978 28.0015 2.60446Z" fill="#2292AD"/>
</svg>
