<svg width="41" height="41" viewBox="0 0 41 41" fill="none" xmlns="http://www.w3.org/2000/svg">
<path fill-rule="evenodd" clip-rule="evenodd" d="M29.8923 24.3624C29.3948 24.0933 26.9479 22.772 26.4912 22.5844C26.0344 22.3968 25.7 22.2989 25.3412 22.7964C24.9823 23.2858 23.9709 24.3951 23.661 24.7213C23.3511 25.0475 23.0574 25.0802 22.5599 24.8029C22.0624 24.5337 20.4475 23.9302 18.5797 22.1358C17.1198 20.7329 16.1655 19.0365 15.8963 18.5226C15.619 18.0006 15.8963 17.7396 16.1573 17.4949C16.3939 17.2747 16.6875 16.924 16.9485 16.6386C17.2095 16.3531 17.3074 16.141 17.4868 15.8148C17.6662 15.4804 17.5928 15.1868 17.4786 14.9258C17.3644 14.6648 16.4428 12.1364 16.0595 11.1087C15.6761 10.081 15.2438 10.2278 14.9502 10.2197C14.6566 10.2115 14.3222 10.1544 13.9796 10.1381C13.6371 10.1218 13.0906 10.236 12.6013 10.7253C12.12 11.2147 10.758 12.3892 10.6682 14.885C10.5704 17.3808 12.2995 19.8521 12.5442 20.2028C12.7807 20.5535 15.8392 25.9529 20.9124 28.1795C25.9855 30.4061 26.0181 29.721 26.9479 29.6721C27.8777 29.6231 29.9902 28.5547 30.4632 27.3884C30.9281 26.222 30.9689 25.2107 30.8466 24.9905C30.7242 24.7702 30.3898 24.6316 29.8923 24.3624ZM20.5861 36.3764C17.2339 36.3764 14.102 35.3732 11.492 33.6441L5.13838 35.675L7.20188 29.5416C5.21994 26.8174 4.05361 23.4734 4.05361 19.8521C4.05361 10.7417 11.4675 3.32771 20.578 3.32771C29.6884 3.32771 37.1023 10.7417 37.1023 19.8521C37.1105 28.9625 29.6966 36.3764 20.5861 36.3764ZM20.5861 0C9.62426 0 0.734054 8.89021 0.734054 19.8521C0.734054 23.6039 1.77804 27.1111 3.58055 30.1044L0 40.7563L10.9863 37.241C13.8328 38.8151 17.1035 39.7123 20.578 39.7123C31.5398 39.7123 40.43 30.8221 40.43 19.8602C40.4382 8.89021 31.548 0 20.5861 0Z" fill="#2292AD"/>
</svg>
